<svg id="visual" viewBox="0 0 960 540" width="960" height="540" xmlns="http://www.w3.org/2000/svg" xmlns:xlink="http://www.w3.org/1999/xlink" version="1.1"><rect x="0" y="0" width="960" height="540" fill="#FFFFFF"></rect><defs><linearGradient id="grad1_0" x1="43.8%" y1="100%" x2="100%" y2="0%"><stop offset="14.444444444444446%" stop-color="#ffffff" stop-opacity="1"></stop><stop offset="85.55555555555554%" stop-color="#ffffff" stop-opacity="1"></stop></linearGradient></defs><defs><linearGradient id="grad2_0" x1="0%" y1="100%" x2="56.3%" y2="0%"><stop offset="14.444444444444446%" stop-color="#ffffff" stop-opacity="1"></stop><stop offset="85.55555555555554%" stop-color="#ffffff" stop-opacity="1"></stop></linearGradient></defs><g transform="translate(960, 540)"><path d="M-432 0C-423.9 -81 -415.7 -162.1 -374.1 -216C-332.5 -269.9 -257.4 -296.7 -189.5 -328.2C-121.6 -359.7 -60.8 -395.9 0 -432L0 0Z" fill="#5a189a"></path></g><g transform="translate(0, 0)"><path d="M432 0C370.9 46.4 309.8 92.8 281.5 162.5C253.1 232.2 257.5 325.3 216 374.1C174.5 422.9 87.3 427.5 0 432L0 0Z" fill="#5a189a"></path></g></svg>